<?xml version="1.0" encoding="UTF-8" standalone="no"?><svg xmlns="http://www.w3.org/2000/svg" xmlns:xlink="http://www.w3.org/1999/xlink" contentScriptType="application/ecmascript" contentStyleType="text/css" height="306px" preserveAspectRatio="none" style="width:779px;height:306px;" version="1.1" viewBox="0 0 779 306" width="779px" zoomAndPan="magnify"><defs><filter height="300%" id="fg6g4vgtb466r" width="300%" x="-1" y="-1"><feGaussianBlur result="blurOut" stdDeviation="2.0"/><feColorMatrix in="blurOut" result="blurOut2" type="matrix" values="0 0 0 0 0 0 0 0 0 0 0 0 0 0 0 0 0 0 .4 0"/><feOffset dx="4.0" dy="4.0" in="blurOut2" result="blurOut3"/><feBlend in="SourceGraphic" in2="blurOut3" mode="normal"/></filter></defs><g><line style="stroke: #A80036; stroke-width: 1.0; stroke-dasharray: 5.0,5.0;" x1="68" x2="68" y1="38.2969" y2="257.0938"/><line style="stroke: #A80036; stroke-width: 1.0; stroke-dasharray: 5.0,5.0;" x1="370" x2="370" y1="38.2969" y2="257.0938"/><line style="stroke: #A80036; stroke-width: 1.0; stroke-dasharray: 5.0,5.0;" x1="692" x2="692" y1="38.2969" y2="257.0938"/><rect fill="#FEFECE" filter="url(#fg6g4vgtb466r)" height="30.2969" style="stroke: #A80036; stroke-width: 1.5;" width="126" x="3" y="3"/><text fill="#000000" font-family="sans-serif" font-size="14" lengthAdjust="spacingAndGlyphs" textLength="112" x="10" y="22.9951">Alice's ILP Node</text><rect fill="#FEFECE" filter="url(#fg6g4vgtb466r)" height="30.2969" style="stroke: #A80036; stroke-width: 1.5;" width="120" x="308" y="3"/><text fill="#000000" font-family="sans-serif" font-size="14" lengthAdjust="spacingAndGlyphs" textLength="106" x="315" y="22.9951">Bob's ILP Node</text><rect fill="#FEFECE" filter="url(#fg6g4vgtb466r)" height="30.2969" style="stroke: #A80036; stroke-width: 1.5;" width="141" x="619.5" y="3"/><text fill="#000000" font-family="sans-serif" font-size="14" lengthAdjust="spacingAndGlyphs" textLength="127" x="626.5" y="22.9951">Charlie's ILP Node</text><rect fill="#FEFECE" filter="url(#fg6g4vgtb466r)" height="30.2969" style="stroke: #A80036; stroke-width: 1.5;" width="126" x="3" y="257.0938"/><text fill="#000000" font-family="sans-serif" font-size="14" lengthAdjust="spacingAndGlyphs" textLength="112" x="10" y="277.0889">Alice's ILP Node</text><rect fill="#FEFECE" filter="url(#fg6g4vgtb466r)" height="30.2969" style="stroke: #A80036; stroke-width: 1.5;" width="120" x="308" y="257.0938"/><text fill="#000000" font-family="sans-serif" font-size="14" lengthAdjust="spacingAndGlyphs" textLength="106" x="315" y="277.0889">Bob's ILP Node</text><rect fill="#FEFECE" filter="url(#fg6g4vgtb466r)" height="30.2969" style="stroke: #A80036; stroke-width: 1.5;" width="141" x="619.5" y="257.0938"/><text fill="#000000" font-family="sans-serif" font-size="14" lengthAdjust="spacingAndGlyphs" textLength="127" x="626.5" y="277.0889">Charlie's ILP Node</text><polygon fill="#A80036" points="358,63.4297,368,67.4297,358,71.4297,362,67.4297" style="stroke: #A80036; stroke-width: 1.0;"/><line style="stroke: #A80036; stroke-width: 1.0;" x1="68" x2="364" y1="67.4297" y2="67.4297"/><text fill="#000000" font-family="sans-serif" font-size="13" lengthAdjust="spacingAndGlyphs" textLength="72" x="75" y="62.3638">ILP Prepare</text><polygon fill="#A80036" points="680,92.5625,690,96.5625,680,100.5625,684,96.5625" style="stroke: #A80036; stroke-width: 1.0;"/><line style="stroke: #A80036; stroke-width: 1.0;" x1="370" x2="686" y1="96.5625" y2="96.5625"/><text fill="#000000" font-family="sans-serif" font-size="13" lengthAdjust="spacingAndGlyphs" textLength="72" x="377" y="91.4966">ILP Prepare</text><polygon fill="#A80036" points="381,121.6953,371,125.6953,381,129.6953,377,125.6953" style="stroke: #A80036; stroke-width: 1.0;"/><line style="stroke: #A80036; stroke-width: 1.0;" x1="375" x2="691" y1="125.6953" y2="125.6953"/><text fill="#000000" font-family="sans-serif" font-size="13" lengthAdjust="spacingAndGlyphs" textLength="54" x="387" y="120.6294">ILP Fulfill</text><line style="stroke: #A80036; stroke-width: 1.0;" x1="370" x2="412" y1="154.8281" y2="154.8281"/><line style="stroke: #A80036; stroke-width: 1.0;" x1="412" x2="412" y1="154.8281" y2="167.8281"/><line style="stroke: #A80036; stroke-width: 1.0;" x1="371" x2="412" y1="167.8281" y2="167.8281"/><polygon fill="#A80036" points="381,163.8281,371,167.8281,381,171.8281,377,167.8281" style="stroke: #A80036; stroke-width: 1.0;"/><text fill="#000000" font-family="sans-serif" font-size="13" lengthAdjust="spacingAndGlyphs" textLength="308" x="377" y="149.7622">Charlie's Balance Exceeds Settlement Threshold</text><polygon fill="#A80036" points="79,153.3281,69,157.3281,79,161.3281,75,157.3281" style="stroke: #A80036; stroke-width: 1.0;"/><line style="stroke: #A80036; stroke-width: 1.0;" x1="73" x2="369" y1="157.3281" y2="157.3281"/><text fill="#000000" font-family="sans-serif" font-size="13" lengthAdjust="spacingAndGlyphs" textLength="54" x="85" y="152.2622">ILP Fulfill</text><polygon fill="#A80036" points="680,195.4609,690,199.4609,680,203.4609,684,199.4609" style="stroke: #A80036; stroke-width: 1.0;"/><line style="stroke: #A80036; stroke-width: 1.0;" x1="370" x2="686" y1="199.4609" y2="199.4609"/><text fill="#000000" font-family="sans-serif" font-size="13" lengthAdjust="spacingAndGlyphs" textLength="118" x="377" y="194.395">Settle With Charlie</text><line style="stroke: #A80036; stroke-width: 1.0;" x1="68" x2="110" y1="196.9609" y2="196.9609"/><line style="stroke: #A80036; stroke-width: 1.0;" x1="110" x2="110" y1="196.9609" y2="209.9609"/><line style="stroke: #A80036; stroke-width: 1.0;" x1="69" x2="110" y1="209.9609" y2="209.9609"/><polygon fill="#A80036" points="79,205.9609,69,209.9609,79,213.9609,75,209.9609" style="stroke: #A80036; stroke-width: 1.0;"/><text fill="#000000" font-family="sans-serif" font-size="13" lengthAdjust="spacingAndGlyphs" textLength="288" x="75" y="191.895">Bob's Balance Exceeds Settlement Threshold</text><polygon fill="#A80036" points="358,235.0938,368,239.0938,358,243.0938,362,239.0938" style="stroke: #A80036; stroke-width: 1.0;"/><line style="stroke: #A80036; stroke-width: 1.0;" x1="68" x2="364" y1="239.0938" y2="239.0938"/><text fill="#000000" font-family="sans-serif" font-size="13" lengthAdjust="spacingAndGlyphs" textLength="98" x="75" y="234.0278">Settle With Bob</text><!--MD5=[04dd31c80d0cf54bbd4369cb92f9cf11]
@startuml
!pragma teoz true

"Alice's ILP Node" -> "Bob's ILP Node": ILP Prepare
"Bob's ILP Node" -> "Charlie's ILP Node": ILP Prepare
"Charlie's ILP Node" -> "Bob's ILP Node": ILP Fulfill
"Bob's ILP Node" -> "Bob's ILP Node": Charlie's Balance Exceeds Settlement Threshold
& "Bob's ILP Node" -> "Alice's ILP Node": ILP Fulfill
"Bob's ILP Node" -> "Charlie's ILP Node": Settle With Charlie
& "Alice's ILP Node" -> "Alice's ILP Node": Bob's Balance Exceeds Settlement Threshold
"Alice's ILP Node" -> "Bob's ILP Node": Settle With Bob
@enduml

PlantUML version 1.2020.16beta7(Unknown compile time)
(GPL source distribution)
Java Runtime: Java(TM) SE Runtime Environment
JVM: Java HotSpot(TM) 64-Bit Server VM
Default Encoding: UTF-8
Language: en
Country: US
--></g></svg>